<?xml version="1.0" encoding="utf-8"?>
<svg viewBox="0 0 40 40" width="40px" height="40px" xmlns="http://www.w3.org/2000/svg">
  <path style="stroke: rgb(0, 0, 0); fill: rgb(42, 51, 71);" d="M 7.683 30.63 L 17.606 8.503 L 21.014 6.862 L 24.958 6.862 L 28.031 8.593 L 28.737 10.46 L 24.676 9.14 C 24.676 9.14 22.973 9.457 22.973 9.467 C 22.973 9.478 22.525 10.516 22.513 10.516 C 22.502 10.516 25.294 16.34 25.283 16.34 C 25.272 16.34 32.033 30.06 32.033 30.06 L 37.88 31.383 L 31.118 32.607 C 31.118 32.607 29.482 33.02 29.469 33.02 C 29.458 33.02 22.01 33.804 22.01 33.804 L 20.223 33.565 C 20.223 33.565 19.521 33.975 19.508 33.975 C 19.496 33.975 18.369 34.356 18.369 34.356 C 18.369 34.356 16.841 34.431 16.816 34.431 C 16.788 34.431 12.712 33.834 12.7 33.834 C 12.687 33.834 8.218 32.953 8.218 32.953 L 4.826 32.54 L 3.357 31.86 L 1.992 32.046 L 4.104 30.791 L 6.872 30.508 L 7.683 30.63 Z"/>
  <path style="stroke: rgb(0, 0, 0); fill: rgb(55, 113, 199); stroke-opacity: 0;" d="M 8.764 30.808 L 13.45 31.516 L 16.536 31.841 L 17.599 31.54 L 18.262 31.159 L 18.631 30.976 L 19.644 31.093 L 20.819 31.346 L 21.659 31.586 L 23.294 31.407 L 26.874 31.166 L 29.601 30.523 L 32.022 29.902 L 30.717 27.423 L 26.983 28.443 L 25.095 28.998 L 23.783 29.096 L 22.395 29.363 C 22.395 29.363 21.397 29.18 21.385 29.18 C 21.373 29.18 20.34 28.933 20.34 28.933 C 20.34 28.933 19.531 29.131 19.518 29.131 C 19.507 29.131 18.553 29.549 18.54 29.549 C 18.528 29.549 17.215 29.747 16.777 30.198 C 16.34 30.647 14.673 30.013 14.673 30.013 L 11.822 29.677 L 9.984 29.069 L 8.721 28.438 L 7.737 30.61 L 8.764 30.808 Z"/>
  <path style="stroke: rgb(0, 0, 0); paint-order: fill; fill: rgb(12, 44, 69); stroke-opacity: 0;" d="M 23.846 15.004 L 21.806 10.517 L 22.513 9.157 L 23.466 9.061 L 24.551 8.899 L 25.552 9.045 L 26.011 9.233 L 24.397 8.116 L 23.23 8.163 L 22.079 8.702 L 21.269 9.375 L 20.578 10.558 L 21.793 12.852 L 23.846 15.004 Z"/>
  <path style="stroke: rgb(0, 0, 0); fill: rgb(12, 44, 69); stroke-opacity: 0;" d="M 26.217 28.033 L 29.896 27.099 L 27.472 21.983 L 25.467 18.099 L 24.878 16.987 C 24.878 16.987 26.14 22.88 26.151 22.89 C 26.163 22.9 26.214 24.981 26.214 24.981 L 25.948 26.461 L 25.158 27.645 L 24.733 28.451 L 26.217 28.033 Z"/>
  <path style="stroke: rgb(0, 0, 0); fill: rgb(12, 44, 69); stroke-opacity: 0;" d="M 28.226 31.338 L 31.822 30.417 C 31.822 30.417 35.307 31.196 35.32 31.196 C 35.332 31.196 36.406 31.395 36.406 31.395 C 36.406 31.395 30.852 32.228 30.841 32.228 C 30.829 32.228 29.405 32.596 29.392 32.596 C 29.38 32.596 28.24 31.288 28.226 31.338 Z"/>
  <path style="stroke: rgb(0, 0, 0); fill: rgb(12, 44, 69); stroke-opacity: 0;" d="M 17.212 32.333 L 18.626 31.522 L 19.627 32.582 L 18.853 33.272 L 17.555 33.569 L 17.212 32.333 Z"/>
  <path style="stroke: rgb(0, 0, 0); fill: rgb(12, 44, 69); stroke-opacity: 0;" d="M 4.209 31.772 L 5.376 32.276 L 7.612 31.301 C 7.612 31.301 10.939 31.583 10.951 31.583 C 10.963 31.583 7.354 30.876 7.354 30.865 C 7.354 30.856 4.238 31.785 4.209 31.772 Z"/>
  <path style="stroke: rgb(0, 0, 0); fill: rgb(12, 44, 69); stroke-opacity: 0;" d="M 3.457 31.673 C 3.457 31.673 5.582 31.01 5.594 31.01 C 5.606 31.01 4.571 30.986 4.571 30.986 L 3.457 31.673 Z"/>
  <path style="stroke: rgb(0, 0, 0); fill: rgb(12, 44, 69); stroke-opacity: 0;" d="M 9.309 28.32 L 10.536 28.875 L 11.097 28.896 L 15.142 15.412 L 9.309 28.32 Z"/>
  <path style="stroke: rgb(0, 0, 0); stroke-opacity: 0; fill: rgb(87, 91, 123);" d="M 20.554 32.862 L 22.244 33.305 C 22.244 33.305 21.268 31.863 21.268 31.854 C 21.268 31.844 20.176 31.494 20.163 31.494 C 20.152 31.494 19.637 31.4 19.625 31.4 C 19.613 31.4 20.482 32.891 20.554 32.862 Z"/>
  <path style="stroke: rgb(0, 0, 0); stroke-opacity: 0; fill: rgb(87, 91, 123);" d="M 17.297 29.335 L 15.845 29.799 L 15.381 29.46 L 16.705 24.605 L 16.966 19.141 L 17.297 29.335 Z"/>
  <path style="stroke: rgb(0, 0, 0); stroke-opacity: 0; fill: rgb(87, 91, 123);" d="M 18.1 9.417 C 18.1 9.417 20.865 8.384 20.865 8.374 C 20.865 8.365 23.382 7.673 23.382 7.673 C 23.382 7.673 21.548 7.091 21.536 7.091 C 21.524 7.091 18.856 8.417 18.856 8.417 L 18.1 9.417 Z"/>
  <path style="stroke: rgb(0, 0, 0); stroke-opacity: 0; fill: rgb(87, 91, 123);" d="M 3.652 31.679 L 6.55 31.011 L 6.691 30.772 L 3.652 31.679 Z"/>
  <path style="stroke: rgb(0, 0, 0); stroke-opacity: 0; fill: rgb(20, 74, 155);" d="M 28.297 28.53 L 30.64 27.77 L 31.589 29.786 L 30.153 30.101 L 30.251 28.967 C 30.251 28.967 28.314 28.613 28.297 28.53 Z"/>
  <path style="stroke: rgb(0, 0, 0); stroke-opacity: 0; fill: rgb(20, 74, 155);" d="M 8.051 30.557 L 10.942 30.943 L 9.224 29.522 L 9.69 29.216 L 8.841 28.782 L 8.051 30.557 Z"/>
  <path style="stroke: rgb(0, 0, 0); fill: rgb(246, 234, 234);" d="M 28.712 10.556 L 27.923 10.547 L 27.796 10.958 L 26.863 11.254 L 26.561 11.88 L 27.76 11.7 L 27.172 14.378 L 27.876 14.206 L 28.295 14.549 L 28.999 14.529 L 29.794 14.228 L 30.088 13.485 L 31.002 13.565 L 31.798 13.957 L 32.296 13.583 C 32.296 13.583 31.878 12.822 31.878 12.812 C 31.878 12.802 32.289 12.552 32.289 12.552 C 32.289 12.552 32.838 12.741 32.85 12.741 C 32.862 12.741 32.235 11.539 32.235 11.539 L 31.403 11.539 L 30.936 11.448 C 30.936 11.448 31.27 11.021 31.283 11.021 C 31.295 11.021 31.751 11.183 31.751 11.183 C 31.751 11.183 31.076 10.275 31.064 10.275 C 31.052 10.275 30.154 10.241 30.154 10.241 C 30.154 10.241 29.373 10.241 29.361 10.241 C 29.349 10.241 28.845 10.536 28.712 10.556 Z"/>
  <path style="stroke: rgb(0, 0, 0); stroke-opacity: 0; fill: rgb(146, 148, 153);" d="M 28.284 10.911 C 28.284 10.911 28.593 10.726 28.593 10.736 C 28.593 10.745 29.039 10.736 29.039 10.736 C 29.039 10.736 29.484 10.66 29.484 10.65 C 29.484 10.641 29.716 10.425 29.716 10.425 L 30.069 11.041 L 29.09 11.097 C 29.09 11.097 28.172 11.255 28.172 11.265 C 28.172 11.276 28.296 10.895 28.284 10.911 Z"/>
  <path style="stroke: rgb(0, 0, 0); stroke-opacity: 0; fill: rgb(146, 148, 153);" d="M 27.743 13.893 L 27.918 13.297 L 28.746 13.334 L 28.59 13.929 L 27.743 13.893 Z"/>
  <path style="stroke: rgb(0, 0, 0); stroke-opacity: 0; fill: rgb(146, 148, 153);" d="M 30.442 13.257 L 31.132 13.267 L 31.714 13.472 L 31.457 12.771 L 30.171 12.648 L 30.442 13.257 Z"/>
  <path style="stroke: rgb(0, 0, 0); stroke-opacity: 0; fill: rgb(146, 148, 153);" d="M 30.687 10.658 L 31.118 10.732 C 31.118 10.732 30.765 10.403 30.752 10.403"/>
  <path style="stroke: rgb(0, 0, 0); stroke-opacity: 0; fill: rgb(78, 135, 221);" d="M 10.186 29.392 L 14.691 30.366 L 15.235 30.387 L 16.621 30.66 L 17.348 30.61 L 17.672 30.138 C 17.672 30.138 18.724 29.995 18.724 29.984 C 18.724 29.974 19.477 29.505 19.477 29.505 L 20.522 29.221 L 21.913 29.426 C 21.913 29.426 22.545 29.666 22.557 29.666 C 22.569 29.666 24.806 29.354 24.806 29.354 L 25.289 29.354 L 26.707 29.045 L 27.878 28.653 L 28.325 28.972 L 25.945 29.431 L 23.741 29.911 L 22.559 29.911 C 22.559 29.911 21.045 29.971 21.032 29.971 C 21.02 29.971 18.714 30.442 18.714 30.442 L 18.099 30.411 L 17.622 30.82 C 17.622 30.82 16.928 31.229 16.916 31.229 C 16.905 31.229 13.699 30.608 13.686 30.598 C 13.675 30.589 12.044 30.318 12.032 30.318 C 12.02 30.318 10.961 29.962 10.961 29.952 C 10.961 29.941 10.204 29.424 10.186 29.392 Z"/>
  <path style="stroke: rgb(0, 0, 0); stroke-opacity: 0; fill: rgb(199, 199, 199);" d="M 36.655 31.67 L 31.27 32.613 L 29.663 33.052 L 22.066 33.872 L 20.322 33.615 L 19.777 33.867 L 18.723 34.379 C 18.723 34.379 16.685 34.52 16.685 34.509 C 16.685 34.5 12.239 33.805 12.239 33.805 L 8.674 33.083 L 5.001 32.585 L 4.481 32.472 L 2.635 33.652 C 2.635 33.652 3.508 33.721 3.508 33.73 C 3.508 33.74 3.43 36.177 3.417 36.177 C 3.405 36.177 3.398 37.64 3.398 37.64 L 9.148 38.124 C 9.148 38.124 14.068 39.086 14.08 39.086 C 14.093 39.086 22.164 38.652 22.164 38.652 C 22.164 38.652 22.509 37.769 22.521 37.769 C 22.534 37.769 24.992 37.369 25.004 37.369 C 25.016 37.369 28.032 37.606 28.044 37.606 C 28.058 37.606 37.183 32.723 37.183 32.723 L 36.655 31.67 Z"/>
</svg>