<?xml version="1.0" encoding="utf-8"?>
<svg width="40" height="40" viewBox="0 0 40 40" fill="none" xmlns="http://www.w3.org/2000/svg">
  <rect width="40" height="40" style="stroke-opacity: 0;" fill="#1A195B"/>
  <ellipse cx="19.5" cy="28.5" rx="14.5" ry="4.5" fill="#DDE0FA"/>
  <path d="M18.7152 8.46871L12.4858 25.6593C12.2496 26.3113 12.7325 27 13.426 27H26.5236C27.2309 27 27.7146 26.2858 27.4522 25.629L20.584 8.43838C20.243 7.585 19.0283 7.60471 18.7152 8.46871Z" fill="#DDE0FA"/>
  <path d="M10.2071 6L11.0089 8.40533L13.4142 9.20711L11.0089 10.0089L10.2071 12.4142L9.40533 10.0089L7 9.20711L9.40533 8.40533L10.2071 6Z" fill="#DDE0FA"/>
  <path d="M31.5723 16L32.2154 17.9292L34.1446 18.5723L32.2154 19.2154L31.5723 21.1446L30.9292 19.2154L29 18.5723L30.9292 17.9292L31.5723 16Z" fill="#DDE0FA"/>
  <path style="stroke: rgb(0, 0, 0); stroke-opacity: 0; fill: rgb(207, 209, 228);" d="M 12.654 24.785 C 12.654 24.785 9.193 25.182 7.634 26.482 C 6.075 27.782 12.202 29.423 12.202 29.423 C 12.202 29.423 18.003 31.258 22.759 29.922 C 27.515 28.586 27.844 27.029 27.844 27.029 C 27.844 27.029 24.281 28.692 20.504 28.651 C 16.727 28.61 14.307 27.659 14.307 27.659 C 14.307 27.659 11.39 26.217 12.654 24.785 Z"/>
  <path style="stroke: rgb(0, 0, 0); stroke-opacity: 0; fill: rgb(207, 209, 228);" d="M 13.259 24.544 L 18.792 8.694 L 19.526 9.259 L 16.873 26.28 C 16.873 26.28 13.19 26.618 13.259 24.544 Z"/>
  <path style="stroke: rgb(0, 0, 0); stroke-opacity: 0; fill: rgb(240, 242, 255);" d="M 27.339 24.901 L 28.015 26.497 L 31.859 26.722 C 31.859 26.722 28.989 24.767 27.339 24.901 Z"/>
  <path style="stroke: rgb(0, 0, 0); stroke-opacity: 0; fill: rgb(240, 242, 255);" d="M 19.326 8.274 C 19.326 8.274 20.117 7.645 20.369 8.654 C 20.621 9.663 19.959 9.089 19.959 9.089 L 19.326 8.274 Z"/>
  <path style="stroke: rgb(0, 0, 0); stroke-opacity: 0; fill: rgb(207, 209, 228);" d="M 16.812 26.287 L 16.505 27.482 C 16.505 27.482 13.58 26.931 13.29 24.938 C 13 22.945 16.897 26.425 16.812 26.287 Z"/>
  <path style="stroke: rgb(0, 0, 0); stroke-opacity: 0; fill: rgb(207, 209, 228);" d="M 10.137 11.372 L 9.63 9.874 L 7.939 9.334 L 10.073 9.549 L 10.137 11.372 Z"/>
  <path style="stroke: rgb(0, 0, 0); stroke-opacity: 0; fill: rgb(207, 209, 228);" d="M 31.571 20.61 L 31.078 19.137 L 29.413 18.593 L 31.235 18.783 L 31.571 20.61 Z"/>
</svg>